%TF.GenerationSoftware,KiCad,Pcbnew,(6.0.0-0)*%
%TF.CreationDate,2023-01-04T17:37:19+01:00*%
%TF.ProjectId,sst39sf040-m27c4001,73737433-3973-4663-9034-302d6d323763,rev?*%
%TF.SameCoordinates,Original*%
%TF.FileFunction,Legend,Top*%
%TF.FilePolarity,Positive*%
%FSLAX46Y46*%
G04 Gerber Fmt 4.6, Leading zero omitted, Abs format (unit mm)*
G04 Created by KiCad (PCBNEW (6.0.0-0)) date 2023-01-04 17:37:19*
%MOMM*%
%LPD*%
G01*
G04 APERTURE LIST*
%ADD10C,0.080000*%
%ADD11C,0.200000*%
G04 APERTURE END LIST*
D10*
X127611904Y-59302380D02*
X127683333Y-59326190D01*
X127802380Y-59326190D01*
X127850000Y-59302380D01*
X127873809Y-59278571D01*
X127897619Y-59230952D01*
X127897619Y-59183333D01*
X127873809Y-59135714D01*
X127850000Y-59111904D01*
X127802380Y-59088095D01*
X127707142Y-59064285D01*
X127659523Y-59040476D01*
X127635714Y-59016666D01*
X127611904Y-58969047D01*
X127611904Y-58921428D01*
X127635714Y-58873809D01*
X127659523Y-58850000D01*
X127707142Y-58826190D01*
X127826190Y-58826190D01*
X127897619Y-58850000D01*
X128088095Y-59302380D02*
X128159523Y-59326190D01*
X128278571Y-59326190D01*
X128326190Y-59302380D01*
X128350000Y-59278571D01*
X128373809Y-59230952D01*
X128373809Y-59183333D01*
X128350000Y-59135714D01*
X128326190Y-59111904D01*
X128278571Y-59088095D01*
X128183333Y-59064285D01*
X128135714Y-59040476D01*
X128111904Y-59016666D01*
X128088095Y-58969047D01*
X128088095Y-58921428D01*
X128111904Y-58873809D01*
X128135714Y-58850000D01*
X128183333Y-58826190D01*
X128302380Y-58826190D01*
X128373809Y-58850000D01*
X128516666Y-58826190D02*
X128802380Y-58826190D01*
X128659523Y-59326190D02*
X128659523Y-58826190D01*
X128921428Y-58826190D02*
X129230952Y-58826190D01*
X129064285Y-59016666D01*
X129135714Y-59016666D01*
X129183333Y-59040476D01*
X129207142Y-59064285D01*
X129230952Y-59111904D01*
X129230952Y-59230952D01*
X129207142Y-59278571D01*
X129183333Y-59302380D01*
X129135714Y-59326190D01*
X128992857Y-59326190D01*
X128945238Y-59302380D01*
X128921428Y-59278571D01*
X129469047Y-59326190D02*
X129564285Y-59326190D01*
X129611904Y-59302380D01*
X129635714Y-59278571D01*
X129683333Y-59207142D01*
X129707142Y-59111904D01*
X129707142Y-58921428D01*
X129683333Y-58873809D01*
X129659523Y-58850000D01*
X129611904Y-58826190D01*
X129516666Y-58826190D01*
X129469047Y-58850000D01*
X129445238Y-58873809D01*
X129421428Y-58921428D01*
X129421428Y-59040476D01*
X129445238Y-59088095D01*
X129469047Y-59111904D01*
X129516666Y-59135714D01*
X129611904Y-59135714D01*
X129659523Y-59111904D01*
X129683333Y-59088095D01*
X129707142Y-59040476D01*
X129897619Y-59302380D02*
X129969047Y-59326190D01*
X130088095Y-59326190D01*
X130135714Y-59302380D01*
X130159523Y-59278571D01*
X130183333Y-59230952D01*
X130183333Y-59183333D01*
X130159523Y-59135714D01*
X130135714Y-59111904D01*
X130088095Y-59088095D01*
X129992857Y-59064285D01*
X129945238Y-59040476D01*
X129921428Y-59016666D01*
X129897619Y-58969047D01*
X129897619Y-58921428D01*
X129921428Y-58873809D01*
X129945238Y-58850000D01*
X129992857Y-58826190D01*
X130111904Y-58826190D01*
X130183333Y-58850000D01*
X130564285Y-59064285D02*
X130397619Y-59064285D01*
X130397619Y-59326190D02*
X130397619Y-58826190D01*
X130635714Y-58826190D01*
X130921428Y-58826190D02*
X130969047Y-58826190D01*
X131016666Y-58850000D01*
X131040476Y-58873809D01*
X131064285Y-58921428D01*
X131088095Y-59016666D01*
X131088095Y-59135714D01*
X131064285Y-59230952D01*
X131040476Y-59278571D01*
X131016666Y-59302380D01*
X130969047Y-59326190D01*
X130921428Y-59326190D01*
X130873809Y-59302380D01*
X130850000Y-59278571D01*
X130826190Y-59230952D01*
X130802380Y-59135714D01*
X130802380Y-59016666D01*
X130826190Y-58921428D01*
X130850000Y-58873809D01*
X130873809Y-58850000D01*
X130921428Y-58826190D01*
X131516666Y-58992857D02*
X131516666Y-59326190D01*
X131397619Y-58802380D02*
X131278571Y-59159523D01*
X131588095Y-59159523D01*
X131873809Y-58826190D02*
X131921428Y-58826190D01*
X131969047Y-58850000D01*
X131992857Y-58873809D01*
X132016666Y-58921428D01*
X132040476Y-59016666D01*
X132040476Y-59135714D01*
X132016666Y-59230952D01*
X131992857Y-59278571D01*
X131969047Y-59302380D01*
X131921428Y-59326190D01*
X131873809Y-59326190D01*
X131826190Y-59302380D01*
X131802380Y-59278571D01*
X131778571Y-59230952D01*
X131754761Y-59135714D01*
X131754761Y-59016666D01*
X131778571Y-58921428D01*
X131802380Y-58873809D01*
X131826190Y-58850000D01*
X131873809Y-58826190D01*
X133016666Y-58992857D02*
X132635714Y-59135714D01*
X133016666Y-59278571D01*
X133254761Y-59135714D02*
X133635714Y-59135714D01*
X133873809Y-58992857D02*
X134254761Y-59135714D01*
X133873809Y-59278571D01*
X134873809Y-59326190D02*
X134873809Y-58826190D01*
X135040476Y-59183333D01*
X135207142Y-58826190D01*
X135207142Y-59326190D01*
X135421428Y-58873809D02*
X135445238Y-58850000D01*
X135492857Y-58826190D01*
X135611904Y-58826190D01*
X135659523Y-58850000D01*
X135683333Y-58873809D01*
X135707142Y-58921428D01*
X135707142Y-58969047D01*
X135683333Y-59040476D01*
X135397619Y-59326190D01*
X135707142Y-59326190D01*
X135873809Y-58826190D02*
X136207142Y-58826190D01*
X135992857Y-59326190D01*
X136683333Y-59278571D02*
X136659523Y-59302380D01*
X136588095Y-59326190D01*
X136540476Y-59326190D01*
X136469047Y-59302380D01*
X136421428Y-59254761D01*
X136397619Y-59207142D01*
X136373809Y-59111904D01*
X136373809Y-59040476D01*
X136397619Y-58945238D01*
X136421428Y-58897619D01*
X136469047Y-58850000D01*
X136540476Y-58826190D01*
X136588095Y-58826190D01*
X136659523Y-58850000D01*
X136683333Y-58873809D01*
X137111904Y-58992857D02*
X137111904Y-59326190D01*
X136992857Y-58802380D02*
X136873809Y-59159523D01*
X137183333Y-59159523D01*
X137469047Y-58826190D02*
X137516666Y-58826190D01*
X137564285Y-58850000D01*
X137588095Y-58873809D01*
X137611904Y-58921428D01*
X137635714Y-59016666D01*
X137635714Y-59135714D01*
X137611904Y-59230952D01*
X137588095Y-59278571D01*
X137564285Y-59302380D01*
X137516666Y-59326190D01*
X137469047Y-59326190D01*
X137421428Y-59302380D01*
X137397619Y-59278571D01*
X137373809Y-59230952D01*
X137350000Y-59135714D01*
X137350000Y-59016666D01*
X137373809Y-58921428D01*
X137397619Y-58873809D01*
X137421428Y-58850000D01*
X137469047Y-58826190D01*
X137945238Y-58826190D02*
X137992857Y-58826190D01*
X138040476Y-58850000D01*
X138064285Y-58873809D01*
X138088095Y-58921428D01*
X138111904Y-59016666D01*
X138111904Y-59135714D01*
X138088095Y-59230952D01*
X138064285Y-59278571D01*
X138040476Y-59302380D01*
X137992857Y-59326190D01*
X137945238Y-59326190D01*
X137897619Y-59302380D01*
X137873809Y-59278571D01*
X137850000Y-59230952D01*
X137826190Y-59135714D01*
X137826190Y-59016666D01*
X137850000Y-58921428D01*
X137873809Y-58873809D01*
X137897619Y-58850000D01*
X137945238Y-58826190D01*
X138588095Y-59326190D02*
X138302380Y-59326190D01*
X138445238Y-59326190D02*
X138445238Y-58826190D01*
X138397619Y-58897619D01*
X138350000Y-58945238D01*
X138302380Y-58969047D01*
D11*
%TO.C,SW1*%
X128500000Y-65400000D02*
X129677000Y-65400000D01*
X137500000Y-65400000D02*
X136323000Y-65400000D01*
X128500000Y-62400000D02*
X128500000Y-65400000D01*
X128500000Y-62400000D02*
X129677000Y-62400000D01*
X137500000Y-62400000D02*
X136323000Y-62400000D01*
X137500000Y-65400000D02*
X137500000Y-62400000D01*
%TO.C,U1*%
X129000000Y-91250000D02*
X129000000Y-79550000D01*
X129000000Y-79550000D02*
X136470000Y-79550000D01*
X137000000Y-91250000D02*
X129000000Y-91250000D01*
X137000000Y-80066000D02*
X136470000Y-79550000D01*
X137000000Y-80066000D02*
X137000000Y-91250000D01*
%TD*%
M02*
