G04 #@! TF.GenerationSoftware,KiCad,Pcbnew,8.0.0*
G04 #@! TF.CreationDate,2024-05-09T12:01:00+02:00*
G04 #@! TF.ProjectId,sst39sf040-m27c4001,73737433-3973-4663-9034-302d6d323763,rev?*
G04 #@! TF.SameCoordinates,Original*
G04 #@! TF.FileFunction,Copper,L1,Top*
G04 #@! TF.FilePolarity,Positive*
%FSLAX46Y46*%
G04 Gerber Fmt 4.6, Leading zero omitted, Abs format (unit mm)*
G04 Created by KiCad (PCBNEW 8.0.0) date 2024-05-09 12:01:00*
%MOMM*%
%LPD*%
G01*
G04 APERTURE LIST*
G04 #@! TA.AperFunction,SMDPad,CuDef*
%ADD10R,1.200000X2.500000*%
G04 #@! TD*
G04 #@! TA.AperFunction,SMDPad,CuDef*
%ADD11R,0.300000X1.300000*%
G04 #@! TD*
G04 #@! TA.AperFunction,ComponentPad*
%ADD12O,1.700000X1.700000*%
G04 #@! TD*
G04 #@! TA.AperFunction,ComponentPad*
%ADD13C,1.700000*%
G04 #@! TD*
G04 #@! TA.AperFunction,ComponentPad*
%ADD14R,1.700000X1.700000*%
G04 #@! TD*
G04 #@! TA.AperFunction,ViaPad*
%ADD15C,0.800000*%
G04 #@! TD*
G04 #@! TA.AperFunction,Conductor*
%ADD16C,0.300000*%
G04 #@! TD*
G04 APERTURE END LIST*
D10*
X130500000Y-61150000D03*
X133000000Y-61150000D03*
X135500000Y-61150000D03*
X130500000Y-66650000D03*
X133000000Y-66650000D03*
X135500000Y-66650000D03*
D11*
X136750000Y-78550000D03*
X136250000Y-78550000D03*
X135750000Y-78550000D03*
X135250000Y-78550000D03*
X134750000Y-78550000D03*
X134250000Y-78550000D03*
X133750000Y-78550000D03*
X133250000Y-78550000D03*
X132750000Y-78550000D03*
X132250000Y-78550000D03*
X131750000Y-78550000D03*
X131250000Y-78550000D03*
X130750000Y-78550000D03*
X130250000Y-78550000D03*
X129750000Y-78550000D03*
X129250000Y-78550000D03*
X129250000Y-92250000D03*
X129750000Y-92250000D03*
X130250000Y-92250000D03*
X130750000Y-92250000D03*
X131250000Y-92250000D03*
X131750000Y-92250000D03*
X132250000Y-92250000D03*
X132750000Y-92250000D03*
X133250000Y-92250000D03*
X133750000Y-92250000D03*
X134250000Y-92250000D03*
X134750000Y-92250000D03*
X135250000Y-92250000D03*
X135750000Y-92250000D03*
X136250000Y-92250000D03*
X136750000Y-92250000D03*
D12*
X140620000Y-98200000D03*
X140620000Y-95660000D03*
X140620000Y-93120000D03*
X140620000Y-90580000D03*
X140620000Y-88040000D03*
X140620000Y-85500000D03*
X140620000Y-82960000D03*
X140620000Y-80420000D03*
X140620000Y-77880000D03*
X140620000Y-75340000D03*
X140620000Y-72800000D03*
X140620000Y-70260000D03*
X140620000Y-67720000D03*
X140620000Y-65180000D03*
X140620000Y-62640000D03*
D13*
X140620000Y-60100000D03*
D12*
X125380000Y-98200000D03*
X125380000Y-95660000D03*
X125380000Y-93120000D03*
X125380000Y-90580000D03*
X125380000Y-88040000D03*
X125380000Y-85500000D03*
X125380000Y-82960000D03*
X125380000Y-80420000D03*
X125380000Y-77880000D03*
X125380000Y-75340000D03*
X125380000Y-72800000D03*
X125380000Y-70260000D03*
X125380000Y-67720000D03*
X125380000Y-65180000D03*
X125380000Y-62640000D03*
D14*
X125380000Y-60100000D03*
D15*
X129999500Y-83000000D03*
X128200000Y-83000000D03*
X130499989Y-85500000D03*
X128200000Y-85500000D03*
X130999509Y-88000000D03*
X128200000Y-88000000D03*
X128200000Y-90600000D03*
X131499989Y-90600000D03*
X133200000Y-80900000D03*
X135500000Y-63300000D03*
X133999500Y-80100000D03*
X133000000Y-63300000D03*
X136000500Y-83000000D03*
X137800000Y-83000000D03*
X135500500Y-85500000D03*
X137900000Y-85500000D03*
X135000000Y-88000000D03*
X137800000Y-88000000D03*
X137800000Y-90600000D03*
X134500500Y-90600000D03*
D16*
X130500000Y-64800000D02*
X130500000Y-66650000D01*
X125800000Y-60100000D02*
X130500000Y-64800000D01*
X128113214Y-66786786D02*
X128113214Y-64953214D01*
X132250000Y-78550000D02*
X132250000Y-70923573D01*
X132250000Y-70923573D02*
X128113214Y-66786786D01*
X128113214Y-64953214D02*
X125800000Y-62640000D01*
X131750000Y-78550000D02*
X131750000Y-71130000D01*
X131750000Y-71130000D02*
X125800000Y-65180000D01*
X131250000Y-73170000D02*
X125800000Y-67720000D01*
X131250000Y-78550000D02*
X131250000Y-73170000D01*
X130750000Y-78550000D02*
X130750000Y-75210000D01*
X130750000Y-75210000D02*
X125800000Y-70260000D01*
X130250000Y-77250000D02*
X125800000Y-72800000D01*
X130250000Y-78550000D02*
X130250000Y-77250000D01*
X127539022Y-75340000D02*
X125800000Y-75340000D01*
X129750000Y-78550000D02*
X129750000Y-77550978D01*
X129750000Y-77550978D02*
X127539022Y-75340000D01*
X126470000Y-78550000D02*
X125800000Y-77880000D01*
X129250000Y-78550000D02*
X126470000Y-78550000D01*
X128020000Y-80420000D02*
X125800000Y-80420000D01*
X129250000Y-92250000D02*
X129250000Y-81750000D01*
X129250000Y-81750000D02*
X129300000Y-81700000D01*
X129300000Y-81700000D02*
X128020000Y-80420000D01*
X129999500Y-83000000D02*
X129750489Y-83249011D01*
X128160000Y-82960000D02*
X128200000Y-83000000D01*
X129750489Y-83249011D02*
X129750489Y-92000000D01*
X125800000Y-82960000D02*
X128160000Y-82960000D01*
X130250009Y-85749980D02*
X130250009Y-91949991D01*
X130499989Y-85500000D02*
X130250009Y-85749980D01*
X125800000Y-85500000D02*
X128200000Y-85500000D01*
X130999509Y-88000000D02*
X130750489Y-88249020D01*
X128160000Y-88040000D02*
X128200000Y-88000000D01*
X125800000Y-88040000D02*
X128160000Y-88040000D01*
X130750489Y-88249020D02*
X130750489Y-91800000D01*
X131250000Y-92250000D02*
X131250000Y-90849989D01*
X131250000Y-90849989D02*
X131499989Y-90600000D01*
X128180000Y-90580000D02*
X128200000Y-90600000D01*
X125800000Y-90580000D02*
X128180000Y-90580000D01*
X131750000Y-93249022D02*
X131029022Y-93970000D01*
X126650000Y-93970000D02*
X125800000Y-93120000D01*
X131750000Y-92250000D02*
X131750000Y-93249022D01*
X131029022Y-93970000D02*
X126650000Y-93970000D01*
X125800000Y-95660000D02*
X131290480Y-95660000D01*
X131290480Y-95660000D02*
X132250480Y-94700000D01*
X132250480Y-94700000D02*
X132250000Y-94699520D01*
X132250000Y-94699520D02*
X132250000Y-92250000D01*
X136550000Y-60100000D02*
X135500000Y-61150000D01*
X133250000Y-78550000D02*
X133250000Y-80850000D01*
X140200000Y-60100000D02*
X136550000Y-60100000D01*
X135500000Y-61150000D02*
X135500000Y-63300000D01*
X133250000Y-80850000D02*
X133200000Y-80900000D01*
X131900000Y-98200000D02*
X125800000Y-98200000D01*
X132750000Y-92250000D02*
X132750000Y-97350000D01*
X132750000Y-97350000D02*
X131900000Y-98200000D01*
X137860000Y-62640000D02*
X135500000Y-65000000D01*
X131300000Y-64400000D02*
X134900000Y-64400000D01*
X135500000Y-65000000D02*
X135500000Y-66650000D01*
X130500000Y-61150000D02*
X130500000Y-63600000D01*
X134900000Y-64400000D02*
X135500000Y-65000000D01*
X140200000Y-62640000D02*
X137860000Y-62640000D01*
X130500000Y-63600000D02*
X131300000Y-64400000D01*
X133750000Y-78550000D02*
X133750000Y-79850500D01*
X133750000Y-79850500D02*
X133999500Y-80100000D01*
X133000000Y-61150000D02*
X133000000Y-63300000D01*
X133000000Y-66650000D02*
X132750000Y-66900000D01*
X132750000Y-66900000D02*
X132750000Y-78550000D01*
X137580000Y-80420000D02*
X136700000Y-81300000D01*
X136750000Y-81350000D02*
X136750000Y-92250000D01*
X136700000Y-81300000D02*
X136750000Y-81350000D01*
X140200000Y-80420000D02*
X137580000Y-80420000D01*
X137800000Y-83000000D02*
X140160000Y-83000000D01*
X140160000Y-83000000D02*
X140200000Y-82960000D01*
X136250000Y-83249500D02*
X136000500Y-83000000D01*
X136250000Y-92250000D02*
X136250000Y-83249500D01*
X140200000Y-85500000D02*
X137900000Y-85500000D01*
X135500500Y-85500000D02*
X135750000Y-85749500D01*
X135750000Y-85749500D02*
X135750000Y-92250000D01*
X137840000Y-88040000D02*
X137800000Y-88000000D01*
X140200000Y-88040000D02*
X137840000Y-88040000D01*
X135250000Y-88250000D02*
X135000000Y-88000000D01*
X135250000Y-92250000D02*
X135250000Y-88250000D01*
X140200000Y-90580000D02*
X137820000Y-90580000D01*
X134750000Y-92250000D02*
X134750000Y-90849500D01*
X134750000Y-90849500D02*
X134500500Y-90600000D01*
X137820000Y-90580000D02*
X137800000Y-90600000D01*
X134250000Y-93249022D02*
X134970978Y-93970000D01*
X134250000Y-92250000D02*
X134250000Y-93249022D01*
X139350000Y-93970000D02*
X140200000Y-93120000D01*
X134970978Y-93970000D02*
X139350000Y-93970000D01*
X134609520Y-95660000D02*
X133749520Y-94800000D01*
X140200000Y-95660000D02*
X134609520Y-95660000D01*
X133749520Y-94800000D02*
X133750000Y-94799520D01*
X133750000Y-94799520D02*
X133750000Y-92250000D01*
X134200000Y-98200000D02*
X140200000Y-98200000D01*
X133250000Y-92250000D02*
X133250000Y-97250000D01*
X133250000Y-97250000D02*
X134200000Y-98200000D01*
X134250000Y-71130000D02*
X140200000Y-65180000D01*
X134250000Y-78550000D02*
X134250000Y-71130000D01*
X134750000Y-78550000D02*
X134750000Y-73170000D01*
X134750000Y-73170000D02*
X140200000Y-67720000D01*
X135250000Y-75210000D02*
X140200000Y-70260000D01*
X135250000Y-78550000D02*
X135250000Y-75210000D01*
X135750000Y-78550000D02*
X135750000Y-77250000D01*
X135750000Y-77250000D02*
X140200000Y-72800000D01*
X136250000Y-78550000D02*
X136250000Y-77550978D01*
X138460978Y-75340000D02*
X140200000Y-75340000D01*
X136250000Y-77550978D02*
X138460978Y-75340000D01*
X136750000Y-78550000D02*
X139530000Y-78550000D01*
X139530000Y-78550000D02*
X140200000Y-77880000D01*
M02*
