G04 #@! TF.GenerationSoftware,KiCad,Pcbnew,8.0.0*
G04 #@! TF.CreationDate,2024-05-09T12:01:00+02:00*
G04 #@! TF.ProjectId,sst39sf040-m27c4001,73737433-3973-4663-9034-302d6d323763,rev?*
G04 #@! TF.SameCoordinates,Original*
G04 #@! TF.FileFunction,Soldermask,Top*
G04 #@! TF.FilePolarity,Negative*
%FSLAX46Y46*%
G04 Gerber Fmt 4.6, Leading zero omitted, Abs format (unit mm)*
G04 Created by KiCad (PCBNEW 8.0.0) date 2024-05-09 12:01:00*
%MOMM*%
%LPD*%
G01*
G04 APERTURE LIST*
%ADD10R,1.200000X2.500000*%
%ADD11R,0.300000X1.300000*%
%ADD12O,1.700000X1.700000*%
%ADD13C,1.700000*%
%ADD14R,1.700000X1.700000*%
G04 APERTURE END LIST*
D10*
X130500000Y-61150000D03*
X133000000Y-61150000D03*
X135500000Y-61150000D03*
X130500000Y-66650000D03*
X133000000Y-66650000D03*
X135500000Y-66650000D03*
D11*
X136750000Y-78550000D03*
X136250000Y-78550000D03*
X135750000Y-78550000D03*
X135250000Y-78550000D03*
X134750000Y-78550000D03*
X134250000Y-78550000D03*
X133750000Y-78550000D03*
X133250000Y-78550000D03*
X132750000Y-78550000D03*
X132250000Y-78550000D03*
X131750000Y-78550000D03*
X131250000Y-78550000D03*
X130750000Y-78550000D03*
X130250000Y-78550000D03*
X129750000Y-78550000D03*
X129250000Y-78550000D03*
X129250000Y-92250000D03*
X129750000Y-92250000D03*
X130250000Y-92250000D03*
X130750000Y-92250000D03*
X131250000Y-92250000D03*
X131750000Y-92250000D03*
X132250000Y-92250000D03*
X132750000Y-92250000D03*
X133250000Y-92250000D03*
X133750000Y-92250000D03*
X134250000Y-92250000D03*
X134750000Y-92250000D03*
X135250000Y-92250000D03*
X135750000Y-92250000D03*
X136250000Y-92250000D03*
X136750000Y-92250000D03*
D12*
X140620000Y-98200000D03*
X140620000Y-95660000D03*
X140620000Y-93120000D03*
X140620000Y-90580000D03*
X140620000Y-88040000D03*
X140620000Y-85500000D03*
X140620000Y-82960000D03*
X140620000Y-80420000D03*
X140620000Y-77880000D03*
X140620000Y-75340000D03*
X140620000Y-72800000D03*
X140620000Y-70260000D03*
X140620000Y-67720000D03*
X140620000Y-65180000D03*
X140620000Y-62640000D03*
D13*
X140620000Y-60100000D03*
D12*
X125380000Y-98200000D03*
X125380000Y-95660000D03*
X125380000Y-93120000D03*
X125380000Y-90580000D03*
X125380000Y-88040000D03*
X125380000Y-85500000D03*
X125380000Y-82960000D03*
X125380000Y-80420000D03*
X125380000Y-77880000D03*
X125380000Y-75340000D03*
X125380000Y-72800000D03*
X125380000Y-70260000D03*
X125380000Y-67720000D03*
X125380000Y-65180000D03*
X125380000Y-62640000D03*
D14*
X125380000Y-60100000D03*
M02*
