G04 #@! TF.GenerationSoftware,KiCad,Pcbnew,8.0.0*
G04 #@! TF.CreationDate,2024-05-09T12:01:00+02:00*
G04 #@! TF.ProjectId,sst39sf040-m27c4001,73737433-3973-4663-9034-302d6d323763,rev?*
G04 #@! TF.SameCoordinates,Original*
G04 #@! TF.FileFunction,Copper,L2,Bot*
G04 #@! TF.FilePolarity,Positive*
%FSLAX46Y46*%
G04 Gerber Fmt 4.6, Leading zero omitted, Abs format (unit mm)*
G04 Created by KiCad (PCBNEW 8.0.0) date 2024-05-09 12:01:00*
%MOMM*%
%LPD*%
G01*
G04 APERTURE LIST*
G04 #@! TA.AperFunction,ComponentPad*
%ADD10O,1.700000X1.700000*%
G04 #@! TD*
G04 #@! TA.AperFunction,ComponentPad*
%ADD11C,1.700000*%
G04 #@! TD*
G04 #@! TA.AperFunction,ComponentPad*
%ADD12R,1.700000X1.700000*%
G04 #@! TD*
G04 #@! TA.AperFunction,ViaPad*
%ADD13C,0.800000*%
G04 #@! TD*
G04 #@! TA.AperFunction,Conductor*
%ADD14C,0.300000*%
G04 #@! TD*
G04 APERTURE END LIST*
D10*
X140620000Y-98200000D03*
X140620000Y-95660000D03*
X140620000Y-93120000D03*
X140620000Y-90580000D03*
X140620000Y-88040000D03*
X140620000Y-85500000D03*
X140620000Y-82960000D03*
X140620000Y-80420000D03*
X140620000Y-77880000D03*
X140620000Y-75340000D03*
X140620000Y-72800000D03*
X140620000Y-70260000D03*
X140620000Y-67720000D03*
X140620000Y-65180000D03*
X140620000Y-62640000D03*
D11*
X140620000Y-60100000D03*
D10*
X125380000Y-98200000D03*
X125380000Y-95660000D03*
X125380000Y-93120000D03*
X125380000Y-90580000D03*
X125380000Y-88040000D03*
X125380000Y-85500000D03*
X125380000Y-82960000D03*
X125380000Y-80420000D03*
X125380000Y-77880000D03*
X125380000Y-75340000D03*
X125380000Y-72800000D03*
X125380000Y-70260000D03*
X125380000Y-67720000D03*
X125380000Y-65180000D03*
X125380000Y-62640000D03*
D12*
X125380000Y-60100000D03*
D13*
X129999500Y-83000000D03*
X128200000Y-83000000D03*
X130499989Y-85500000D03*
X128200000Y-85500000D03*
X130999509Y-88000000D03*
X128200000Y-88000000D03*
X128200000Y-90600000D03*
X131499989Y-90600000D03*
X133200000Y-80900000D03*
X135500000Y-63300000D03*
X133999500Y-80100000D03*
X133000000Y-63300000D03*
X136000500Y-83000000D03*
X137800000Y-83000000D03*
X135500500Y-85500000D03*
X137900000Y-85500000D03*
X135000000Y-88000000D03*
X137800000Y-88000000D03*
X137800000Y-90600000D03*
X134500500Y-90600000D03*
D14*
X128200000Y-83000000D02*
X129999500Y-83000000D01*
X128200000Y-85500000D02*
X130499989Y-85500000D01*
X128200000Y-88000000D02*
X130999509Y-88000000D01*
X128200000Y-90600000D02*
X131499989Y-90600000D01*
X133200000Y-80900000D02*
X135000000Y-80900000D01*
X135500000Y-80400000D02*
X135500000Y-63300000D01*
X135000000Y-80900000D02*
X135500000Y-80400000D01*
X133999500Y-80100000D02*
X133500000Y-80100000D01*
X133500000Y-80100000D02*
X133000000Y-79600000D01*
X133000000Y-79600000D02*
X133000000Y-63300000D01*
X136000500Y-83000000D02*
X137800000Y-83000000D01*
X137900000Y-85500000D02*
X135500500Y-85500000D01*
X135000000Y-88000000D02*
X137800000Y-88000000D01*
X134500500Y-90600000D02*
X137800000Y-90600000D01*
M02*
