M48
; DRILL file {KiCad 8.0.0} date 2024-05-09T12:04:40+0200
; FORMAT={-:-/ absolute / metric / decimal}
; #@! TF.CreationDate,2024-05-09T12:04:40+02:00
; #@! TF.GenerationSoftware,Kicad,Pcbnew,8.0.0
; #@! TF.FileFunction,Plated,1,2,PTH
FMAT,2
METRIC
; #@! TA.AperFunction,Plated,PTH,ViaDrill
T1C0.400
; #@! TA.AperFunction,Plated,PTH,ComponentDrill
T2C1.000
%
G90
G05
T1
X128.2Y-83.0
X128.2Y-85.5
X128.2Y-88.0
X128.2Y-90.6
X129.999Y-83.0
X130.5Y-85.5
X131.0Y-88.0
X131.5Y-90.6
X133.0Y-63.3
X133.2Y-80.9
X133.999Y-80.1
X134.5Y-90.6
X135.0Y-88.0
X135.5Y-63.3
X135.5Y-85.5
X136.0Y-83.0
X137.8Y-83.0
X137.8Y-88.0
X137.8Y-90.6
X137.9Y-85.5
T2
X125.38Y-60.1
X125.38Y-62.64
X125.38Y-65.18
X125.38Y-67.72
X125.38Y-70.26
X125.38Y-72.8
X125.38Y-75.34
X125.38Y-77.88
X125.38Y-80.42
X125.38Y-82.96
X125.38Y-85.5
X125.38Y-88.04
X125.38Y-90.58
X125.38Y-93.12
X125.38Y-95.66
X125.38Y-98.2
X140.62Y-60.1
X140.62Y-62.64
X140.62Y-65.18
X140.62Y-67.72
X140.62Y-70.26
X140.62Y-72.8
X140.62Y-75.34
X140.62Y-77.88
X140.62Y-80.42
X140.62Y-82.96
X140.62Y-85.5
X140.62Y-88.04
X140.62Y-90.58
X140.62Y-93.12
X140.62Y-95.66
X140.62Y-98.2
M30
