M48
; DRILL file {KiCad (6.0.0-0)} date 2023 January 04, Wednesday 17:37:10
; FORMAT={-:-/ absolute / inch / decimal}
; #@! TF.CreationDate,2023-01-04T17:37:10+01:00
; #@! TF.GenerationSoftware,Kicad,Pcbnew,(6.0.0-0)
; #@! TF.FileFunction,Plated,1,2,PTH
FMAT,2
INCH
; #@! TA.AperFunction,Plated,PTH,ViaDrill
T1C0.0157
; #@! TA.AperFunction,Plated,PTH,ComponentDrill
T2C0.0394
%
G90
G05
T1
X5.0472Y-3.2677
X5.0472Y-3.3661
X5.0472Y-3.4646
X5.0472Y-3.5669
X5.1181Y-3.2677
X5.1378Y-3.3661
X5.1575Y-3.4646
X5.1772Y-3.5669
X5.2362Y-2.4921
X5.2441Y-3.185
X5.2756Y-3.1535
X5.2953Y-3.5669
X5.315Y-3.4646
X5.3346Y-2.4921
X5.3347Y-3.3661
X5.3544Y-3.2677
X5.4252Y-3.2677
X5.4252Y-3.4646
X5.4252Y-3.5669
X5.4291Y-3.3661
T2
X4.9429Y-2.3661
X4.9429Y-2.4661
X4.9429Y-2.5661
X4.9429Y-2.6661
X4.9429Y-2.7661
X4.9429Y-2.8661
X4.9429Y-2.9661
X4.9429Y-3.0661
X4.9429Y-3.1661
X4.9429Y-3.2661
X4.9429Y-3.3661
X4.9429Y-3.4661
X4.9429Y-3.5661
X4.9429Y-3.6661
X4.9429Y-3.7661
X4.9429Y-3.8661
X5.5295Y-2.3661
X5.5295Y-2.4661
X5.5295Y-2.5661
X5.5295Y-2.6661
X5.5295Y-2.7661
X5.5295Y-2.8661
X5.5295Y-2.9661
X5.5295Y-3.0661
X5.5295Y-3.1661
X5.5295Y-3.2661
X5.5295Y-3.3661
X5.5295Y-3.4661
X5.5295Y-3.5661
X5.5295Y-3.6661
X5.5295Y-3.7661
X5.5295Y-3.8661
T0
M30
