%TF.GenerationSoftware,KiCad,Pcbnew,(6.0.0-0)*%
%TF.CreationDate,2023-01-04T17:37:18+01:00*%
%TF.ProjectId,sst39sf040-m27c4001,73737433-3973-4663-9034-302d6d323763,rev?*%
%TF.SameCoordinates,Original*%
%TF.FileFunction,Copper,L1,Top*%
%TF.FilePolarity,Positive*%
%FSLAX46Y46*%
G04 Gerber Fmt 4.6, Leading zero omitted, Abs format (unit mm)*
G04 Created by KiCad (PCBNEW (6.0.0-0)) date 2023-01-04 17:37:18*
%MOMM*%
%LPD*%
G01*
G04 APERTURE LIST*
%TA.AperFunction,SMDPad,CuDef*%
%ADD10R,1.200000X2.500000*%
%TD*%
%TA.AperFunction,SMDPad,CuDef*%
%ADD11R,0.300000X1.300000*%
%TD*%
%TA.AperFunction,ComponentPad*%
%ADD12O,1.700000X1.700000*%
%TD*%
%TA.AperFunction,ComponentPad*%
%ADD13C,1.700000*%
%TD*%
%TA.AperFunction,ComponentPad*%
%ADD14R,1.700000X1.700000*%
%TD*%
%TA.AperFunction,ViaPad*%
%ADD15C,0.800000*%
%TD*%
%TA.AperFunction,Conductor*%
%ADD16C,0.300000*%
%TD*%
G04 APERTURE END LIST*
D10*
%TO.P,SW1,1,A*%
%TO.N,Net-(J2-Pad31)*%
X130500000Y-61150000D03*
%TO.P,SW1,2,B*%
%TO.N,Net-(U1-Pad7)*%
X133000000Y-61150000D03*
%TO.P,SW1,3,C*%
%TO.N,VCC*%
X135500000Y-61150000D03*
%TO.P,SW1,4,A*%
%TO.N,Net-(J1-Pad1)*%
X130500000Y-66650000D03*
%TO.P,SW1,5,B*%
%TO.N,Net-(U1-Pad9)*%
X133000000Y-66650000D03*
%TO.P,SW1,6,C*%
%TO.N,Net-(J2-Pad31)*%
X135500000Y-66650000D03*
%TD*%
D11*
%TO.P,U1,1,A11*%
%TO.N,Net-(U1-Pad1)*%
X136750000Y-78550000D03*
%TO.P,U1,2,A9*%
%TO.N,Net-(U1-Pad2)*%
X136250000Y-78550000D03*
%TO.P,U1,3,A8*%
%TO.N,Net-(U1-Pad3)*%
X135750000Y-78550000D03*
%TO.P,U1,4,A13*%
%TO.N,Net-(U1-Pad4)*%
X135250000Y-78550000D03*
%TO.P,U1,5,A14*%
%TO.N,Net-(U1-Pad5)*%
X134750000Y-78550000D03*
%TO.P,U1,6,A17*%
%TO.N,Net-(U1-Pad6)*%
X134250000Y-78550000D03*
%TO.P,U1,7,WE#*%
%TO.N,Net-(U1-Pad7)*%
X133750000Y-78550000D03*
%TO.P,U1,8,VDD*%
%TO.N,VCC*%
X133250000Y-78550000D03*
%TO.P,U1,9,A18*%
%TO.N,Net-(U1-Pad9)*%
X132750000Y-78550000D03*
%TO.P,U1,10,A16*%
%TO.N,Net-(J1-Pad2)*%
X132250000Y-78550000D03*
%TO.P,U1,11,A15*%
%TO.N,Net-(J1-Pad3)*%
X131750000Y-78550000D03*
%TO.P,U1,12,A12*%
%TO.N,Net-(J1-Pad4)*%
X131250000Y-78550000D03*
%TO.P,U1,13,A7*%
%TO.N,Net-(J1-Pad5)*%
X130750000Y-78550000D03*
%TO.P,U1,14,A6*%
%TO.N,Net-(J1-Pad6)*%
X130250000Y-78550000D03*
%TO.P,U1,15,A5*%
%TO.N,Net-(J1-Pad7)*%
X129750000Y-78550000D03*
%TO.P,U1,16,A4*%
%TO.N,Net-(J1-Pad8)*%
X129250000Y-78550000D03*
%TO.P,U1,17,A3*%
%TO.N,Net-(J1-Pad9)*%
X129250000Y-92250000D03*
%TO.P,U1,18,A2*%
%TO.N,Net-(J1-Pad10)*%
X129750000Y-92250000D03*
%TO.P,U1,19,A1*%
%TO.N,Net-(J1-Pad11)*%
X130250000Y-92250000D03*
%TO.P,U1,20,A0*%
%TO.N,Net-(J1-Pad12)*%
X130750000Y-92250000D03*
%TO.P,U1,21,DQ0*%
%TO.N,Net-(J1-Pad13)*%
X131250000Y-92250000D03*
%TO.P,U1,22,DQ1*%
%TO.N,Net-(J1-Pad14)*%
X131750000Y-92250000D03*
%TO.P,U1,23,DQ2*%
%TO.N,Net-(J1-Pad15)*%
X132250000Y-92250000D03*
%TO.P,U1,24,VSS*%
%TO.N,GNDREF*%
X132750000Y-92250000D03*
%TO.P,U1,25,DQ3*%
%TO.N,Net-(J2-Pad17)*%
X133250000Y-92250000D03*
%TO.P,U1,26,DQ4*%
%TO.N,Net-(J2-Pad18)*%
X133750000Y-92250000D03*
%TO.P,U1,27,DQ5*%
%TO.N,Net-(J2-Pad19)*%
X134250000Y-92250000D03*
%TO.P,U1,28,DQ6*%
%TO.N,Net-(J2-Pad20)*%
X134750000Y-92250000D03*
%TO.P,U1,29,DQ7*%
%TO.N,Net-(J2-Pad21)*%
X135250000Y-92250000D03*
%TO.P,U1,30,CE#*%
%TO.N,Net-(J2-Pad22)*%
X135750000Y-92250000D03*
%TO.P,U1,31,A10*%
%TO.N,Net-(J2-Pad23)*%
X136250000Y-92250000D03*
%TO.P,U1,32,OE#*%
%TO.N,Net-(J2-Pad24)*%
X136750000Y-92250000D03*
%TD*%
D12*
%TO.P,J2,17,Pin_17*%
%TO.N,Net-(J2-Pad17)*%
X140450000Y-98200000D03*
%TO.P,J2,18,Pin_18*%
%TO.N,Net-(J2-Pad18)*%
X140450000Y-95660000D03*
%TO.P,J2,19,Pin_19*%
%TO.N,Net-(J2-Pad19)*%
X140450000Y-93120000D03*
%TO.P,J2,20,Pin_20*%
%TO.N,Net-(J2-Pad20)*%
X140450000Y-90580000D03*
%TO.P,J2,21,Pin_21*%
%TO.N,Net-(J2-Pad21)*%
X140450000Y-88040000D03*
%TO.P,J2,22,Pin_22*%
%TO.N,Net-(J2-Pad22)*%
X140450000Y-85500000D03*
%TO.P,J2,23,Pin_23*%
%TO.N,Net-(J2-Pad23)*%
X140450000Y-82960000D03*
%TO.P,J2,24,Pin_24*%
%TO.N,Net-(J2-Pad24)*%
X140450000Y-80420000D03*
%TO.P,J2,25,Pin_25*%
%TO.N,Net-(U1-Pad1)*%
X140450000Y-77880000D03*
%TO.P,J2,26,Pin_26*%
%TO.N,Net-(U1-Pad2)*%
X140450000Y-75340000D03*
%TO.P,J2,27,Pin_27*%
%TO.N,Net-(U1-Pad3)*%
X140450000Y-72800000D03*
%TO.P,J2,28,Pin_28*%
%TO.N,Net-(U1-Pad4)*%
X140450000Y-70260000D03*
%TO.P,J2,29,Pin_29*%
%TO.N,Net-(U1-Pad5)*%
X140450000Y-67720000D03*
%TO.P,J2,30,Pin_30*%
%TO.N,Net-(U1-Pad6)*%
X140450000Y-65180000D03*
%TO.P,J2,31,Pin_31*%
%TO.N,Net-(J2-Pad31)*%
X140450000Y-62640000D03*
D13*
%TO.P,J2,32,Pin_32*%
%TO.N,VCC*%
X140450000Y-60100000D03*
%TD*%
D14*
%TO.P,J1,1,Pin_1*%
%TO.N,Net-(J1-Pad1)*%
X125550000Y-60100000D03*
D12*
%TO.P,J1,2,Pin_2*%
%TO.N,Net-(J1-Pad2)*%
X125550000Y-62640000D03*
%TO.P,J1,3,Pin_3*%
%TO.N,Net-(J1-Pad3)*%
X125550000Y-65180000D03*
%TO.P,J1,4,Pin_4*%
%TO.N,Net-(J1-Pad4)*%
X125550000Y-67720000D03*
%TO.P,J1,5,Pin_5*%
%TO.N,Net-(J1-Pad5)*%
X125550000Y-70260000D03*
%TO.P,J1,6,Pin_6*%
%TO.N,Net-(J1-Pad6)*%
X125550000Y-72800000D03*
%TO.P,J1,7,Pin_7*%
%TO.N,Net-(J1-Pad7)*%
X125550000Y-75340000D03*
%TO.P,J1,8,Pin_8*%
%TO.N,Net-(J1-Pad8)*%
X125550000Y-77880000D03*
%TO.P,J1,9,Pin_9*%
%TO.N,Net-(J1-Pad9)*%
X125550000Y-80420000D03*
%TO.P,J1,10,Pin_10*%
%TO.N,Net-(J1-Pad10)*%
X125550000Y-82960000D03*
%TO.P,J1,11,Pin_11*%
%TO.N,Net-(J1-Pad11)*%
X125550000Y-85500000D03*
%TO.P,J1,12,Pin_12*%
%TO.N,Net-(J1-Pad12)*%
X125550000Y-88040000D03*
%TO.P,J1,13,Pin_13*%
%TO.N,Net-(J1-Pad13)*%
X125550000Y-90580000D03*
%TO.P,J1,14,Pin_14*%
%TO.N,Net-(J1-Pad14)*%
X125550000Y-93120000D03*
%TO.P,J1,15,Pin_15*%
%TO.N,Net-(J1-Pad15)*%
X125550000Y-95660000D03*
%TO.P,J1,16,Pin_16*%
%TO.N,GNDREF*%
X125550000Y-98200000D03*
%TD*%
D15*
%TO.N,Net-(J1-Pad10)*%
X129999500Y-83000000D03*
X128200000Y-83000000D03*
%TO.N,Net-(J1-Pad11)*%
X130499989Y-85500000D03*
X128200000Y-85500000D03*
%TO.N,Net-(J1-Pad12)*%
X130999509Y-88000000D03*
X128200000Y-88000000D03*
%TO.N,Net-(J1-Pad13)*%
X128200000Y-90600000D03*
X131499989Y-90600000D03*
%TO.N,VCC*%
X133200000Y-80900000D03*
X135500000Y-63300000D03*
%TO.N,Net-(U1-Pad7)*%
X133999500Y-80100000D03*
X133000000Y-63300000D03*
%TO.N,Net-(J2-Pad23)*%
X136000500Y-83000000D03*
X137800000Y-83000000D03*
%TO.N,Net-(J2-Pad22)*%
X135500500Y-85500000D03*
X137900000Y-85500000D03*
%TO.N,Net-(J2-Pad21)*%
X135000000Y-88000000D03*
X137800000Y-88000000D03*
%TO.N,Net-(J2-Pad20)*%
X137800000Y-90600000D03*
X134500500Y-90600000D03*
%TD*%
D16*
%TO.N,Net-(J1-Pad1)*%
X130500000Y-64800000D02*
X130500000Y-66650000D01*
X125800000Y-60100000D02*
X130500000Y-64800000D01*
%TO.N,Net-(J1-Pad2)*%
X128113214Y-66786786D02*
X128113214Y-64953214D01*
X132250000Y-78550000D02*
X132250000Y-70923573D01*
X132250000Y-70923573D02*
X128113214Y-66786786D01*
X128113214Y-64953214D02*
X125800000Y-62640000D01*
%TO.N,Net-(J1-Pad3)*%
X131750000Y-78550000D02*
X131750000Y-71130000D01*
X131750000Y-71130000D02*
X125800000Y-65180000D01*
%TO.N,Net-(J1-Pad4)*%
X131250000Y-73170000D02*
X125800000Y-67720000D01*
X131250000Y-78550000D02*
X131250000Y-73170000D01*
%TO.N,Net-(J1-Pad5)*%
X130750000Y-78550000D02*
X130750000Y-75210000D01*
X130750000Y-75210000D02*
X125800000Y-70260000D01*
%TO.N,Net-(J1-Pad6)*%
X130250000Y-77250000D02*
X125800000Y-72800000D01*
X130250000Y-78550000D02*
X130250000Y-77250000D01*
%TO.N,Net-(J1-Pad7)*%
X127539022Y-75340000D02*
X125800000Y-75340000D01*
X129750000Y-78550000D02*
X129750000Y-77550978D01*
X129750000Y-77550978D02*
X127539022Y-75340000D01*
%TO.N,Net-(J1-Pad8)*%
X126470000Y-78550000D02*
X125800000Y-77880000D01*
X129250000Y-78550000D02*
X126470000Y-78550000D01*
%TO.N,Net-(J1-Pad9)*%
X128020000Y-80420000D02*
X125800000Y-80420000D01*
X129250000Y-92250000D02*
X129250000Y-81750000D01*
X129250000Y-81750000D02*
X129300000Y-81700000D01*
X129300000Y-81700000D02*
X128020000Y-80420000D01*
%TO.N,Net-(J1-Pad10)*%
X129999500Y-83000000D02*
X129750489Y-83249011D01*
X128160000Y-82960000D02*
X128200000Y-83000000D01*
X129750489Y-83249011D02*
X129750489Y-92000000D01*
X125800000Y-82960000D02*
X128160000Y-82960000D01*
%TO.N,Net-(J1-Pad11)*%
X130250009Y-85749980D02*
X130250009Y-91949991D01*
X130499989Y-85500000D02*
X130250009Y-85749980D01*
X125800000Y-85500000D02*
X128200000Y-85500000D01*
%TO.N,Net-(J1-Pad12)*%
X130999509Y-88000000D02*
X130750489Y-88249020D01*
X128160000Y-88040000D02*
X128200000Y-88000000D01*
X125800000Y-88040000D02*
X128160000Y-88040000D01*
X130750489Y-88249020D02*
X130750489Y-91800000D01*
%TO.N,Net-(J1-Pad13)*%
X131250000Y-92250000D02*
X131250000Y-90849989D01*
X131250000Y-90849989D02*
X131499989Y-90600000D01*
X128180000Y-90580000D02*
X128200000Y-90600000D01*
X125800000Y-90580000D02*
X128180000Y-90580000D01*
%TO.N,Net-(J1-Pad14)*%
X131750000Y-93249022D02*
X131029022Y-93970000D01*
X126650000Y-93970000D02*
X125800000Y-93120000D01*
X131750000Y-92250000D02*
X131750000Y-93249022D01*
X131029022Y-93970000D02*
X126650000Y-93970000D01*
%TO.N,Net-(J1-Pad15)*%
X125800000Y-95660000D02*
X131290480Y-95660000D01*
X131290480Y-95660000D02*
X132250480Y-94700000D01*
X132250480Y-94700000D02*
X132250000Y-94699520D01*
X132250000Y-94699520D02*
X132250000Y-92250000D01*
%TO.N,VCC*%
X136550000Y-60100000D02*
X135500000Y-61150000D01*
X133250000Y-78550000D02*
X133250000Y-80850000D01*
X140200000Y-60100000D02*
X136550000Y-60100000D01*
X135500000Y-61150000D02*
X135500000Y-63300000D01*
X133250000Y-80850000D02*
X133200000Y-80900000D01*
%TO.N,GNDREF*%
X131900000Y-98200000D02*
X125800000Y-98200000D01*
X132750000Y-92250000D02*
X132750000Y-97350000D01*
X132750000Y-97350000D02*
X131900000Y-98200000D01*
%TO.N,Net-(J2-Pad31)*%
X137860000Y-62640000D02*
X135500000Y-65000000D01*
X131300000Y-64400000D02*
X134900000Y-64400000D01*
X135500000Y-65000000D02*
X135500000Y-66650000D01*
X130500000Y-61150000D02*
X130500000Y-63600000D01*
X134900000Y-64400000D02*
X135500000Y-65000000D01*
X140200000Y-62640000D02*
X137860000Y-62640000D01*
X130500000Y-63600000D02*
X131300000Y-64400000D01*
%TO.N,Net-(U1-Pad7)*%
X133750000Y-78550000D02*
X133750000Y-79850500D01*
X133750000Y-79850500D02*
X133999500Y-80100000D01*
X133000000Y-61150000D02*
X133000000Y-63300000D01*
%TO.N,Net-(U1-Pad9)*%
X133000000Y-66650000D02*
X132750000Y-66900000D01*
X132750000Y-66900000D02*
X132750000Y-78550000D01*
%TO.N,Net-(J2-Pad24)*%
X137580000Y-80420000D02*
X136700000Y-81300000D01*
X136750000Y-81350000D02*
X136750000Y-92250000D01*
X136700000Y-81300000D02*
X136750000Y-81350000D01*
X140200000Y-80420000D02*
X137580000Y-80420000D01*
%TO.N,Net-(J2-Pad23)*%
X137800000Y-83000000D02*
X140160000Y-83000000D01*
X140160000Y-83000000D02*
X140200000Y-82960000D01*
X136250000Y-83249500D02*
X136000500Y-83000000D01*
X136250000Y-92250000D02*
X136250000Y-83249500D01*
%TO.N,Net-(J2-Pad22)*%
X140200000Y-85500000D02*
X137900000Y-85500000D01*
X135500500Y-85500000D02*
X135750000Y-85749500D01*
X135750000Y-85749500D02*
X135750000Y-92250000D01*
%TO.N,Net-(J2-Pad21)*%
X137840000Y-88040000D02*
X137800000Y-88000000D01*
X140200000Y-88040000D02*
X137840000Y-88040000D01*
X135250000Y-88250000D02*
X135000000Y-88000000D01*
X135250000Y-92250000D02*
X135250000Y-88250000D01*
%TO.N,Net-(J2-Pad20)*%
X140200000Y-90580000D02*
X137820000Y-90580000D01*
X134750000Y-92250000D02*
X134750000Y-90849500D01*
X134750000Y-90849500D02*
X134500500Y-90600000D01*
X137820000Y-90580000D02*
X137800000Y-90600000D01*
%TO.N,Net-(J2-Pad19)*%
X134250000Y-93249022D02*
X134970978Y-93970000D01*
X134250000Y-92250000D02*
X134250000Y-93249022D01*
X139350000Y-93970000D02*
X140200000Y-93120000D01*
X134970978Y-93970000D02*
X139350000Y-93970000D01*
%TO.N,Net-(J2-Pad18)*%
X134609520Y-95660000D02*
X133749520Y-94800000D01*
X140200000Y-95660000D02*
X134609520Y-95660000D01*
X133749520Y-94800000D02*
X133750000Y-94799520D01*
X133750000Y-94799520D02*
X133750000Y-92250000D01*
%TO.N,Net-(J2-Pad17)*%
X134200000Y-98200000D02*
X140200000Y-98200000D01*
X133250000Y-92250000D02*
X133250000Y-97250000D01*
X133250000Y-97250000D02*
X134200000Y-98200000D01*
%TO.N,Net-(U1-Pad6)*%
X134250000Y-71130000D02*
X140200000Y-65180000D01*
X134250000Y-78550000D02*
X134250000Y-71130000D01*
%TO.N,Net-(U1-Pad5)*%
X134750000Y-78550000D02*
X134750000Y-73170000D01*
X134750000Y-73170000D02*
X140200000Y-67720000D01*
%TO.N,Net-(U1-Pad4)*%
X135250000Y-75210000D02*
X140200000Y-70260000D01*
X135250000Y-78550000D02*
X135250000Y-75210000D01*
%TO.N,Net-(U1-Pad3)*%
X135750000Y-78550000D02*
X135750000Y-77250000D01*
X135750000Y-77250000D02*
X140200000Y-72800000D01*
%TO.N,Net-(U1-Pad2)*%
X136250000Y-78550000D02*
X136250000Y-77550978D01*
X138460978Y-75340000D02*
X140200000Y-75340000D01*
X136250000Y-77550978D02*
X138460978Y-75340000D01*
%TO.N,Net-(U1-Pad1)*%
X136750000Y-78550000D02*
X139530000Y-78550000D01*
X139530000Y-78550000D02*
X140200000Y-77880000D01*
%TD*%
M02*
